<svg xmlns="http://www.w3.org/2000/svg" xmlns:xlink="http://www.w3.org/1999/xlink" contentScriptType="application/ecmascript" contentStyleType="text/css" height="618px" preserveAspectRatio="none" style="width:585px;height:618px;" version="1.1" viewBox="0 0 585 618" width="585px" zoomAndPan="magnify"><defs><filter height="300%" id="fo97wtzfoqpq9" width="300%" x="-1" y="-1"><feGaussianBlur result="blurOut" stdDeviation="2.0"/><feColorMatrix in="blurOut" result="blurOut2" type="matrix" values="0 0 0 0 0 0 0 0 0 0 0 0 0 0 0 0 0 0 .4 0"/><feOffset dx="4.0" dy="4.0" in="blurOut2" result="blurOut3"/><feBlend in="SourceGraphic" in2="blurOut3" mode="normal"/></filter></defs><g><!--class event--><rect fill="#FEFECE" filter="url(#fo97wtzfoqpq9)" height="143.5703" id="event" style="stroke: #A80036; stroke-width: 1.5;" width="136" x="356" y="464"/><ellipse cx="388.55" cy="482.9688" fill="#FFAAAA" rx="11" ry="11" style="stroke: #A80036; stroke-width: 1.0;"/><path d="M388.9875,480.5 L388.9875,487.0156 L390.1125,487.0156 C390.5656,487.0156 390.7063,487.0469 390.8625,487.1719 C391.0969,487.3438 391.2219,487.5938 391.2219,487.875 C391.2219,488.1563 391.0813,488.4531 390.8156,488.5938 C390.7063,488.6719 390.4406,488.7188 390.1125,488.7188 L386.175,488.7188 C385.7844,488.7188 385.5656,488.6719 385.4094,488.5469 C385.1906,488.3906 385.05,488.125 385.05,487.875 C385.05,487.5781 385.2063,487.2969 385.4563,487.1406 C385.6125,487.0313 385.7375,487.0156 386.175,487.0156 L387.2844,487.0156 L387.2844,480.5 L385.4563,480.5 L385.4563,482.0938 C385.4563,482.5469 385.425,482.6875 385.3156,482.8594 C385.1438,483.0781 384.8938,483.2031 384.6125,483.2031 C384.3313,483.2031 384.0344,483.0625 383.8781,482.7969 C383.8,482.6563 383.7688,482.4844 383.7688,482.0938 L383.7688,478.8125 L392.5344,478.8125 L392.5344,482.0938 C392.5344,482.5625 392.5188,482.6875 392.3781,482.8594 C392.2063,483.0781 391.9563,483.2031 391.6906,483.2031 C391.3938,483.2031 391.1125,483.0469 390.9563,482.7969 C390.8625,482.6563 390.8313,482.4844 390.8313,482.0938 L390.8313,480.5 Z "/><text fill="#000000" font-family="sans-serif" font-size="12" font-style="italic" lengthAdjust="spacingAndGlyphs" textLength="69" x="404.45" y="480.1387">«DB Table»</text><text fill="#000000" font-family="sans-serif" font-size="12" lengthAdjust="spacingAndGlyphs" textLength="35" x="421.45" y="494.1074">event</text><line style="stroke: #A80036; stroke-width: 1.5;" x1="357" x2="491" y1="501.9375" y2="501.9375"/><text fill="#000000" font-family="sans-serif" font-size="11" lengthAdjust="spacingAndGlyphs" textLength="102" x="362" y="516.1479">aggregate_id:uuid</text><text fill="#000000" font-family="sans-serif" font-size="11" lengthAdjust="spacingAndGlyphs" textLength="75" x="362" y="528.9526">event_id:uuid</text><text fill="#000000" font-family="sans-serif" font-size="11" lengthAdjust="spacingAndGlyphs" textLength="105" x="362" y="541.7573">next_event_id:uuid</text><text fill="#000000" font-family="sans-serif" font-size="11" lengthAdjust="spacingAndGlyphs" textLength="102" x="362" y="554.562">last_event_id:uuid</text><text fill="#000000" font-family="sans-serif" font-size="11" lengthAdjust="spacingAndGlyphs" textLength="124" x="362" y="567.3667">creation_time:varchar</text><text fill="#000000" font-family="sans-serif" font-size="11" lengthAdjust="spacingAndGlyphs" textLength="86" x="362" y="580.1714">version:integer</text><text fill="#000000" font-family="sans-serif" font-size="11" lengthAdjust="spacingAndGlyphs" textLength="57" x="362" y="592.9761">data:JSON</text><line style="stroke: #A80036; stroke-width: 1.5;" x1="357" x2="491" y1="599.5703" y2="599.5703"/><!--class vm_type--><rect fill="#FEFECE" filter="url(#fo97wtzfoqpq9)" height="92.3516" id="vm_type" style="stroke: #A80036; stroke-width: 1.5;" width="122" x="281" y="8"/><ellipse cx="307.25" cy="26.9688" fill="#FFAAAA" rx="11" ry="11" style="stroke: #A80036; stroke-width: 1.0;"/><path d="M307.6875,24.5 L307.6875,31.0156 L308.8125,31.0156 C309.2656,31.0156 309.4063,31.0469 309.5625,31.1719 C309.7969,31.3438 309.9219,31.5938 309.9219,31.875 C309.9219,32.1563 309.7813,32.4531 309.5156,32.5938 C309.4063,32.6719 309.1406,32.7188 308.8125,32.7188 L304.875,32.7188 C304.4844,32.7188 304.2656,32.6719 304.1094,32.5469 C303.8906,32.3906 303.75,32.125 303.75,31.875 C303.75,31.5781 303.9063,31.2969 304.1563,31.1406 C304.3125,31.0313 304.4375,31.0156 304.875,31.0156 L305.9844,31.0156 L305.9844,24.5 L304.1563,24.5 L304.1563,26.0938 C304.1563,26.5469 304.125,26.6875 304.0156,26.8594 C303.8438,27.0781 303.5938,27.2031 303.3125,27.2031 C303.0313,27.2031 302.7344,27.0625 302.5781,26.7969 C302.5,26.6563 302.4688,26.4844 302.4688,26.0938 L302.4688,22.8125 L311.2344,22.8125 L311.2344,26.0938 C311.2344,26.5625 311.2188,26.6875 311.0781,26.8594 C310.9063,27.0781 310.6563,27.2031 310.3906,27.2031 C310.0938,27.2031 309.8125,27.0469 309.6563,26.7969 C309.5625,26.6563 309.5313,26.4844 309.5313,26.0938 L309.5313,24.5 Z "/><text fill="#000000" font-family="sans-serif" font-size="12" font-style="italic" lengthAdjust="spacingAndGlyphs" textLength="69" x="321.75" y="24.1387">«DB Table»</text><text fill="#000000" font-family="sans-serif" font-size="12" lengthAdjust="spacingAndGlyphs" textLength="50" x="331.25" y="38.1074">vm_type</text><line style="stroke: #A80036; stroke-width: 1.5;" x1="282" x2="402" y1="45.9375" y2="45.9375"/><text fill="#000000" font-family="sans-serif" font-size="11" lengthAdjust="spacingAndGlyphs" textLength="91" x="287" y="60.1479">vm_type_id:uuid</text><text fill="#000000" font-family="sans-serif" font-size="11" lengthAdjust="spacingAndGlyphs" textLength="79" x="287" y="72.9526">name:varchar</text><text fill="#000000" font-family="sans-serif" font-size="11" lengthAdjust="spacingAndGlyphs" textLength="110" x="287" y="85.7573">description:varchar</text><line style="stroke: #A80036; stroke-width: 1.5;" x1="282" x2="402" y1="92.3516" y2="92.3516"/><!--class vm--><rect fill="#FEFECE" filter="url(#fo97wtzfoqpq9)" height="92.3516" id="vm" style="stroke: #A80036; stroke-width: 1.5;" width="128" x="360" y="160"/><ellipse cx="388.95" cy="178.9688" fill="#FFAAAA" rx="11" ry="11" style="stroke: #A80036; stroke-width: 1.0;"/><path d="M389.3875,176.5 L389.3875,183.0156 L390.5125,183.0156 C390.9656,183.0156 391.1063,183.0469 391.2625,183.1719 C391.4969,183.3438 391.6219,183.5938 391.6219,183.875 C391.6219,184.1563 391.4813,184.4531 391.2156,184.5938 C391.1063,184.6719 390.8406,184.7188 390.5125,184.7188 L386.575,184.7188 C386.1844,184.7188 385.9656,184.6719 385.8094,184.5469 C385.5906,184.3906 385.45,184.125 385.45,183.875 C385.45,183.5781 385.6063,183.2969 385.8563,183.1406 C386.0125,183.0313 386.1375,183.0156 386.575,183.0156 L387.6844,183.0156 L387.6844,176.5 L385.8563,176.5 L385.8563,178.0938 C385.8563,178.5469 385.825,178.6875 385.7156,178.8594 C385.5438,179.0781 385.2938,179.2031 385.0125,179.2031 C384.7313,179.2031 384.4344,179.0625 384.2781,178.7969 C384.2,178.6563 384.1688,178.4844 384.1688,178.0938 L384.1688,174.8125 L392.9344,174.8125 L392.9344,178.0938 C392.9344,178.5625 392.9188,178.6875 392.7781,178.8594 C392.6063,179.0781 392.3563,179.2031 392.0906,179.2031 C391.7938,179.2031 391.5125,179.0469 391.3563,178.7969 C391.2625,178.6563 391.2313,178.4844 391.2313,178.0938 L391.2313,176.5 Z "/><text fill="#000000" font-family="sans-serif" font-size="12" font-style="italic" lengthAdjust="spacingAndGlyphs" textLength="69" x="404.05" y="176.1387">«DB Table»</text><text fill="#000000" font-family="sans-serif" font-size="12" lengthAdjust="spacingAndGlyphs" textLength="17" x="430.05" y="190.1074">vm</text><line style="stroke: #A80036; stroke-width: 1.5;" x1="361" x2="487" y1="197.9375" y2="197.9375"/><text fill="#000000" font-family="sans-serif" font-size="11" lengthAdjust="spacingAndGlyphs" textLength="61" x="366" y="212.1479">vm_id:uuid</text><text fill="#000000" font-family="sans-serif" font-size="11" lengthAdjust="spacingAndGlyphs" textLength="91" x="366" y="224.9526">vm_type_id:uuid</text><text fill="#000000" font-family="sans-serif" font-size="11" lengthAdjust="spacingAndGlyphs" textLength="116" x="366" y="237.7573">query_object_id:uuid</text><line style="stroke: #A80036; stroke-width: 1.5;" x1="361" x2="487" y1="244.3516" y2="244.3516"/><!--class vm_cache--><rect fill="#FEFECE" filter="url(#fo97wtzfoqpq9)" height="92.3516" id="vm_cache" style="stroke: #A80036; stroke-width: 1.5;" width="136" x="438" y="8"/><ellipse cx="470.55" cy="26.9688" fill="#FFAAAA" rx="11" ry="11" style="stroke: #A80036; stroke-width: 1.0;"/><path d="M470.9875,24.5 L470.9875,31.0156 L472.1125,31.0156 C472.5656,31.0156 472.7063,31.0469 472.8625,31.1719 C473.0969,31.3438 473.2219,31.5938 473.2219,31.875 C473.2219,32.1563 473.0813,32.4531 472.8156,32.5938 C472.7063,32.6719 472.4406,32.7188 472.1125,32.7188 L468.175,32.7188 C467.7844,32.7188 467.5656,32.6719 467.4094,32.5469 C467.1906,32.3906 467.05,32.125 467.05,31.875 C467.05,31.5781 467.2063,31.2969 467.4563,31.1406 C467.6125,31.0313 467.7375,31.0156 468.175,31.0156 L469.2844,31.0156 L469.2844,24.5 L467.4563,24.5 L467.4563,26.0938 C467.4563,26.5469 467.425,26.6875 467.3156,26.8594 C467.1438,27.0781 466.8938,27.2031 466.6125,27.2031 C466.3313,27.2031 466.0344,27.0625 465.8781,26.7969 C465.8,26.6563 465.7688,26.4844 465.7688,26.0938 L465.7688,22.8125 L474.5344,22.8125 L474.5344,26.0938 C474.5344,26.5625 474.5188,26.6875 474.3781,26.8594 C474.2063,27.0781 473.9563,27.2031 473.6906,27.2031 C473.3938,27.2031 473.1125,27.0469 472.9563,26.7969 C472.8625,26.6563 472.8313,26.4844 472.8313,26.0938 L472.8313,24.5 Z "/><text fill="#000000" font-family="sans-serif" font-size="12" font-style="italic" lengthAdjust="spacingAndGlyphs" textLength="69" x="486.45" y="24.1387">«DB Table»</text><text fill="#000000" font-family="sans-serif" font-size="12" lengthAdjust="spacingAndGlyphs" textLength="61" x="490.45" y="38.1074">vm_cache</text><line style="stroke: #A80036; stroke-width: 1.5;" x1="439" x2="573" y1="45.9375" y2="45.9375"/><text fill="#000000" font-family="sans-serif" font-size="11" lengthAdjust="spacingAndGlyphs" textLength="61" x="444" y="60.1479">vm_id:uuid</text><text fill="#000000" font-family="sans-serif" font-size="11" lengthAdjust="spacingAndGlyphs" textLength="124" x="444" y="72.9526">creation_time:varchar</text><text fill="#000000" font-family="sans-serif" font-size="11" lengthAdjust="spacingAndGlyphs" textLength="57" x="444" y="85.7573">data:JSON</text><line style="stroke: #A80036; stroke-width: 1.5;" x1="439" x2="573" y1="92.3516" y2="92.3516"/><!--class query_object--><rect fill="#FEFECE" filter="url(#fo97wtzfoqpq9)" height="66.7422" id="query_object" style="stroke: #A80036; stroke-width: 1.5;" width="128" x="196" y="324.5"/><ellipse cx="218.2" cy="343.4688" fill="#FFAAAA" rx="11" ry="11" style="stroke: #A80036; stroke-width: 1.0;"/><path d="M218.6375,341 L218.6375,347.5156 L219.7625,347.5156 C220.2156,347.5156 220.3563,347.5469 220.5125,347.6719 C220.7469,347.8438 220.8719,348.0938 220.8719,348.375 C220.8719,348.6563 220.7313,348.9531 220.4656,349.0938 C220.3563,349.1719 220.0906,349.2188 219.7625,349.2188 L215.825,349.2188 C215.4344,349.2188 215.2156,349.1719 215.0594,349.0469 C214.8406,348.8906 214.7,348.625 214.7,348.375 C214.7,348.0781 214.8563,347.7969 215.1063,347.6406 C215.2625,347.5313 215.3875,347.5156 215.825,347.5156 L216.9344,347.5156 L216.9344,341 L215.1063,341 L215.1063,342.5938 C215.1063,343.0469 215.075,343.1875 214.9656,343.3594 C214.7938,343.5781 214.5438,343.7031 214.2625,343.7031 C213.9813,343.7031 213.6844,343.5625 213.5281,343.2969 C213.45,343.1563 213.4188,342.9844 213.4188,342.5938 L213.4188,339.3125 L222.1844,339.3125 L222.1844,342.5938 C222.1844,343.0625 222.1688,343.1875 222.0281,343.3594 C221.8563,343.5781 221.6063,343.7031 221.3406,343.7031 C221.0438,343.7031 220.7625,343.5469 220.6063,343.2969 C220.5125,343.1563 220.4813,342.9844 220.4813,342.5938 L220.4813,341 Z "/><text fill="#000000" font-family="sans-serif" font-size="12" font-style="italic" lengthAdjust="spacingAndGlyphs" textLength="69" x="239.3" y="340.6387">«DB Table»</text><text fill="#000000" font-family="sans-serif" font-size="12" lengthAdjust="spacingAndGlyphs" textLength="80" x="233.8" y="354.6074">query_object</text><line style="stroke: #A80036; stroke-width: 1.5;" x1="197" x2="323" y1="362.4375" y2="362.4375"/><text fill="#000000" font-family="sans-serif" font-size="11" lengthAdjust="spacingAndGlyphs" textLength="116" x="202" y="376.6479">query_object_id:uuid</text><line style="stroke: #A80036; stroke-width: 1.5;" x1="197" x2="323" y1="383.2422" y2="383.2422"/><!--class query_object_kv_pair--><rect fill="#FEFECE" filter="url(#fo97wtzfoqpq9)" height="79.5469" id="query_object_kv_pair" style="stroke: #A80036; stroke-width: 1.5;" width="161" x="163.5" y="166"/><ellipse cx="178.5" cy="184.9688" fill="#FFAAAA" rx="11" ry="11" style="stroke: #A80036; stroke-width: 1.0;"/><path d="M178.9375,182.5 L178.9375,189.0156 L180.0625,189.0156 C180.5156,189.0156 180.6563,189.0469 180.8125,189.1719 C181.0469,189.3438 181.1719,189.5938 181.1719,189.875 C181.1719,190.1563 181.0313,190.4531 180.7656,190.5938 C180.6563,190.6719 180.3906,190.7188 180.0625,190.7188 L176.125,190.7188 C175.7344,190.7188 175.5156,190.6719 175.3594,190.5469 C175.1406,190.3906 175,190.125 175,189.875 C175,189.5781 175.1563,189.2969 175.4063,189.1406 C175.5625,189.0313 175.6875,189.0156 176.125,189.0156 L177.2344,189.0156 L177.2344,182.5 L175.4063,182.5 L175.4063,184.0938 C175.4063,184.5469 175.375,184.6875 175.2656,184.8594 C175.0938,185.0781 174.8438,185.2031 174.5625,185.2031 C174.2813,185.2031 173.9844,185.0625 173.8281,184.7969 C173.75,184.6563 173.7188,184.4844 173.7188,184.0938 L173.7188,180.8125 L182.4844,180.8125 L182.4844,184.0938 C182.4844,184.5625 182.4688,184.6875 182.3281,184.8594 C182.1563,185.0781 181.9063,185.2031 181.6406,185.2031 C181.3438,185.2031 181.0625,185.0469 180.9063,184.7969 C180.8125,184.6563 180.7813,184.4844 180.7813,184.0938 L180.7813,182.5 Z "/><text fill="#000000" font-family="sans-serif" font-size="12" font-style="italic" lengthAdjust="spacingAndGlyphs" textLength="69" x="222.5" y="182.1387">«DB Table»</text><text fill="#000000" font-family="sans-serif" font-size="12" lengthAdjust="spacingAndGlyphs" textLength="129" x="192.5" y="196.1074">query_object_kv_pair</text><line style="stroke: #A80036; stroke-width: 1.5;" x1="164.5" x2="323.5" y1="203.9375" y2="203.9375"/><text fill="#000000" font-family="sans-serif" font-size="11" lengthAdjust="spacingAndGlyphs" textLength="116" x="169.5" y="218.1479">query_object_id:uuid</text><text fill="#000000" font-family="sans-serif" font-size="11" lengthAdjust="spacingAndGlyphs" textLength="84" x="169.5" y="230.9526">kv_pair_id:uuid</text><line style="stroke: #A80036; stroke-width: 1.5;" x1="164.5" x2="323.5" y1="237.5469" y2="237.5469"/><!--class kv_pair--><rect fill="#FEFECE" filter="url(#fo97wtzfoqpq9)" height="92.3516" id="kv_pair" style="stroke: #A80036; stroke-width: 1.5;" width="106" x="43" y="312"/><ellipse cx="62.05" cy="330.9688" fill="#FFAAAA" rx="11" ry="11" style="stroke: #A80036; stroke-width: 1.0;"/><path d="M62.4875,328.5 L62.4875,335.0156 L63.6125,335.0156 C64.0656,335.0156 64.2063,335.0469 64.3625,335.1719 C64.5969,335.3438 64.7219,335.5938 64.7219,335.875 C64.7219,336.1563 64.5813,336.4531 64.3156,336.5938 C64.2063,336.6719 63.9406,336.7188 63.6125,336.7188 L59.675,336.7188 C59.2844,336.7188 59.0656,336.6719 58.9094,336.5469 C58.6906,336.3906 58.55,336.125 58.55,335.875 C58.55,335.5781 58.7063,335.2969 58.9563,335.1406 C59.1125,335.0313 59.2375,335.0156 59.675,335.0156 L60.7844,335.0156 L60.7844,328.5 L58.9563,328.5 L58.9563,330.0938 C58.9563,330.5469 58.925,330.6875 58.8156,330.8594 C58.6438,331.0781 58.3938,331.2031 58.1125,331.2031 C57.8313,331.2031 57.5344,331.0625 57.3781,330.7969 C57.3,330.6563 57.2688,330.4844 57.2688,330.0938 L57.2688,326.8125 L66.0344,326.8125 L66.0344,330.0938 C66.0344,330.5625 66.0188,330.6875 65.8781,330.8594 C65.7063,331.0781 65.4563,331.2031 65.1906,331.2031 C64.8938,331.2031 64.6125,331.0469 64.4563,330.7969 C64.3625,330.6563 64.3313,330.4844 64.3313,330.0938 L64.3313,328.5 Z "/><text fill="#000000" font-family="sans-serif" font-size="12" font-style="italic" lengthAdjust="spacingAndGlyphs" textLength="69" x="74.95" y="328.1387">«DB Table»</text><text fill="#000000" font-family="sans-serif" font-size="12" lengthAdjust="spacingAndGlyphs" textLength="43" x="87.95" y="342.1074">kv_pair</text><line style="stroke: #A80036; stroke-width: 1.5;" x1="44" x2="148" y1="349.9375" y2="349.9375"/><text fill="#000000" font-family="sans-serif" font-size="11" lengthAdjust="spacingAndGlyphs" textLength="84" x="49" y="364.1479">kv_pair_id:uuid</text><text fill="#000000" font-family="sans-serif" font-size="11" lengthAdjust="spacingAndGlyphs" textLength="94" x="49" y="376.9526">map_key_id:uuid</text><text fill="#000000" font-family="sans-serif" font-size="11" lengthAdjust="spacingAndGlyphs" textLength="77" x="49" y="389.7573">value:varchar</text><line style="stroke: #A80036; stroke-width: 1.5;" x1="44" x2="148" y1="396.3516" y2="396.3516"/><!--class map_key--><rect fill="#FEFECE" filter="url(#fo97wtzfoqpq9)" height="92.3516" id="map_key" style="stroke: #A80036; stroke-width: 1.5;" width="122" x="6" y="160"/><ellipse cx="32.25" cy="178.9688" fill="#FFAAAA" rx="11" ry="11" style="stroke: #A80036; stroke-width: 1.0;"/><path d="M32.6875,176.5 L32.6875,183.0156 L33.8125,183.0156 C34.2656,183.0156 34.4063,183.0469 34.5625,183.1719 C34.7969,183.3438 34.9219,183.5938 34.9219,183.875 C34.9219,184.1563 34.7813,184.4531 34.5156,184.5938 C34.4063,184.6719 34.1406,184.7188 33.8125,184.7188 L29.875,184.7188 C29.4844,184.7188 29.2656,184.6719 29.1094,184.5469 C28.8906,184.3906 28.75,184.125 28.75,183.875 C28.75,183.5781 28.9063,183.2969 29.1563,183.1406 C29.3125,183.0313 29.4375,183.0156 29.875,183.0156 L30.9844,183.0156 L30.9844,176.5 L29.1563,176.5 L29.1563,178.0938 C29.1563,178.5469 29.125,178.6875 29.0156,178.8594 C28.8438,179.0781 28.5938,179.2031 28.3125,179.2031 C28.0313,179.2031 27.7344,179.0625 27.5781,178.7969 C27.5,178.6563 27.4688,178.4844 27.4688,178.0938 L27.4688,174.8125 L36.2344,174.8125 L36.2344,178.0938 C36.2344,178.5625 36.2188,178.6875 36.0781,178.8594 C35.9063,179.0781 35.6563,179.2031 35.3906,179.2031 C35.0938,179.2031 34.8125,179.0469 34.6563,178.7969 C34.5625,178.6563 34.5313,178.4844 34.5313,178.0938 L34.5313,176.5 Z "/><text fill="#000000" font-family="sans-serif" font-size="12" font-style="italic" lengthAdjust="spacingAndGlyphs" textLength="69" x="46.75" y="176.1387">«DB Table»</text><text fill="#000000" font-family="sans-serif" font-size="12" lengthAdjust="spacingAndGlyphs" textLength="54" x="54.25" y="190.1074">map_key</text><line style="stroke: #A80036; stroke-width: 1.5;" x1="7" x2="127" y1="197.9375" y2="197.9375"/><text fill="#000000" font-family="sans-serif" font-size="11" lengthAdjust="spacingAndGlyphs" textLength="94" x="12" y="212.1479">map_key_id:uuid</text><text fill="#000000" font-family="sans-serif" font-size="11" lengthAdjust="spacingAndGlyphs" textLength="79" x="12" y="224.9526">name:varchar</text><text fill="#000000" font-family="sans-serif" font-size="11" lengthAdjust="spacingAndGlyphs" textLength="110" x="12" y="237.7573">description:varchar</text><line style="stroke: #A80036; stroke-width: 1.5;" x1="7" x2="127" y1="244.3516" y2="244.3516"/><!--class vm_event--><rect fill="#FEFECE" filter="url(#fo97wtzfoqpq9)" height="79.5469" id="vm_event" style="stroke: #A80036; stroke-width: 1.5;" width="97" x="375.5" y="318"/><ellipse cx="390.5" cy="336.9688" fill="#FFAAAA" rx="11" ry="11" style="stroke: #A80036; stroke-width: 1.0;"/><path d="M390.9375,334.5 L390.9375,341.0156 L392.0625,341.0156 C392.5156,341.0156 392.6563,341.0469 392.8125,341.1719 C393.0469,341.3438 393.1719,341.5938 393.1719,341.875 C393.1719,342.1563 393.0313,342.4531 392.7656,342.5938 C392.6563,342.6719 392.3906,342.7188 392.0625,342.7188 L388.125,342.7188 C387.7344,342.7188 387.5156,342.6719 387.3594,342.5469 C387.1406,342.3906 387,342.125 387,341.875 C387,341.5781 387.1563,341.2969 387.4063,341.1406 C387.5625,341.0313 387.6875,341.0156 388.125,341.0156 L389.2344,341.0156 L389.2344,334.5 L387.4063,334.5 L387.4063,336.0938 C387.4063,336.5469 387.375,336.6875 387.2656,336.8594 C387.0938,337.0781 386.8438,337.2031 386.5625,337.2031 C386.2813,337.2031 385.9844,337.0625 385.8281,336.7969 C385.75,336.6563 385.7188,336.4844 385.7188,336.0938 L385.7188,332.8125 L394.4844,332.8125 L394.4844,336.0938 C394.4844,336.5625 394.4688,336.6875 394.3281,336.8594 C394.1563,337.0781 393.9063,337.2031 393.6406,337.2031 C393.3438,337.2031 393.0625,337.0469 392.9063,336.7969 C392.8125,336.6563 392.7813,336.4844 392.7813,336.0938 L392.7813,334.5 Z "/><text fill="#000000" font-family="sans-serif" font-size="12" font-style="italic" lengthAdjust="spacingAndGlyphs" textLength="69" x="402.5" y="334.1387">«DB Table»</text><text fill="#000000" font-family="sans-serif" font-size="12" lengthAdjust="spacingAndGlyphs" textLength="58" x="408" y="348.1074">vm_event</text><line style="stroke: #A80036; stroke-width: 1.5;" x1="376.5" x2="471.5" y1="355.9375" y2="355.9375"/><text fill="#000000" font-family="sans-serif" font-size="11" lengthAdjust="spacingAndGlyphs" textLength="61" x="381.5" y="370.1479">vm_id:uuid</text><text fill="#000000" font-family="sans-serif" font-size="11" lengthAdjust="spacingAndGlyphs" textLength="75" x="381.5" y="382.9526">event_id:uuid</text><line style="stroke: #A80036; stroke-width: 1.5;" x1="376.5" x2="471.5" y1="389.5469" y2="389.5469"/><!--link vm to query_object--><path d="M374.795,252.005 C349.32,275.305 318.79,303.229 295.62,324.42 " fill="none" id="vm-query_object" style="stroke: #A80036; stroke-width: 1.0;"/><text fill="#000000" font-family="sans-serif" font-size="13" lengthAdjust="spacingAndGlyphs" textLength="13" x="352.917" y="272.5818">m</text><text fill="#000000" font-family="sans-serif" font-size="13" lengthAdjust="spacingAndGlyphs" textLength="8" x="293.8452" y="313.4377">1</text><!--link vm_type to vm--><path d="M366.603,100.005 C376.934,118.904 388.928,140.845 399.273,159.768 " fill="none" id="vm_type-vm" style="stroke: #A80036; stroke-width: 1.0;"/><text fill="#000000" font-family="sans-serif" font-size="13" lengthAdjust="spacingAndGlyphs" textLength="8" x="361.8866" y="120.5818">1</text><text fill="#000000" font-family="sans-serif" font-size="13" lengthAdjust="spacingAndGlyphs" textLength="13" x="381.6865" y="148.9269">m</text><!--link vm to vm_event--><path d="M424,252.005 C424,272.889 424,297.487 424,317.623 " fill="none" id="vm-vm_event" style="stroke: #A80036; stroke-width: 1.0;"/><text fill="#000000" font-family="sans-serif" font-size="13" lengthAdjust="spacingAndGlyphs" textLength="8" x="415.3625" y="272.5818">1</text><text fill="#000000" font-family="sans-serif" font-size="13" lengthAdjust="spacingAndGlyphs" textLength="13" x="409.9234" y="306.8088">m</text><!--link vm_event to event--><path d="M424,398.06 C424,417.403 424,441.371 424,463.822 " fill="none" id="vm_event-event" style="stroke: #A80036; stroke-width: 1.0;"/><text fill="#000000" font-family="sans-serif" font-size="13" lengthAdjust="spacingAndGlyphs" textLength="8" x="415.3625" y="417.7535">1</text><text fill="#000000" font-family="sans-serif" font-size="13" lengthAdjust="spacingAndGlyphs" textLength="8" x="415.5875" y="452.7011">1</text><!--link vm_cache to vm--><path d="M481.397,100.005 C471.066,118.904 459.072,140.845 448.727,159.768 " fill="none" id="vm_cache-vm" style="stroke: #A80036; stroke-width: 1.0;"/><text fill="#000000" font-family="sans-serif" font-size="13" lengthAdjust="spacingAndGlyphs" textLength="8" x="468.8384" y="120.5818">1</text><text fill="#000000" font-family="sans-serif" font-size="13" lengthAdjust="spacingAndGlyphs" textLength="8" x="443.7713" y="148.9269">1</text><!--link query_object_kv_pair to query_object--><path d="M248.162,246.019 C250.755,270.325 254.052,301.237 256.508,324.261 " fill="none" id="query_object_kv_pair-query_object" style="stroke: #A80036; stroke-width: 1.0;"/><text fill="#000000" font-family="sans-serif" font-size="13" lengthAdjust="spacingAndGlyphs" textLength="8" x="240.1878" y="265.7059">1</text><text fill="#000000" font-family="sans-serif" font-size="13" lengthAdjust="spacingAndGlyphs" textLength="13" x="241.6033" y="313.5039">m</text><!--link query_object_kv_pair to kv_pair--><path d="M205.501,246.019 C185.631,266.158 161.285,290.833 140.599,311.798 " fill="none" id="query_object_kv_pair-kv_pair" style="stroke: #A80036; stroke-width: 1.0;"/><text fill="#000000" font-family="sans-serif" font-size="13" lengthAdjust="spacingAndGlyphs" textLength="8" x="190.7277" y="265.7059">1</text><text fill="#000000" font-family="sans-serif" font-size="13" lengthAdjust="spacingAndGlyphs" textLength="13" x="133.1948" y="300.9613">m</text><!--link map_key to kv_pair--><path d="M75.701,252.005 C79.3547,270.904 83.5966,292.845 87.2551,311.768 " fill="none" id="map_key-kv_pair" style="stroke: #A80036; stroke-width: 1.0;"/><text fill="#000000" font-family="sans-serif" font-size="13" lengthAdjust="spacingAndGlyphs" textLength="8" x="68.4502" y="272.5818">1</text><text fill="#000000" font-family="sans-serif" font-size="13" lengthAdjust="spacingAndGlyphs" textLength="13" x="72.016" y="300.9269">m</text><!--
@startuml

class event <<(T, #FFAAAA) DB Table>>
event : aggregate_id:uuid
event : event_id:uuid
event : next_event_id:uuid
event : last_event_id:uuid
event : creation_time:varchar
event : version:integer
event : data:JSON

class vm_type <<(T, #FFAAAA) DB Table>>
vm_type : vm_type_id:uuid
vm_type : name:varchar
vm_type : description:varchar

class vm <<(T, #FFAAAA) DB Table>>
vm : vm_id:uuid
vm : vm_type_id:uuid
vm : query_object_id:uuid

class vm_cache <<(T, #FFAAAA) DB Table>>
vm_cache : vm_id:uuid
vm_cache : creation_time:varchar
vm_cache : data:JSON

class query_object <<(T, #FFAAAA) DB Table>>
query_object : query_object_id:uuid

class query_object_kv_pair <<(T, #FFAAAA) DB Table>>
query_object_kv_pair : query_object_id:uuid
query_object_kv_pair : kv_pair_id:uuid

class kv_pair <<(T, #FFAAAA) DB Table>>
kv_pair : kv_pair_id:uuid
kv_pair : map_key_id:uuid
kv_pair : value:varchar

class map_key <<(T, #FFAAAA) DB Table>>
map_key : map_key_id:uuid
map_key : name:varchar
map_key : description:varchar

class vm_event <<(T, #FFAAAA) DB Table>>
vm_event : vm_id:uuid
vm_event : event_id:uuid

vm "m" - - "1" query_object
vm_type "1" - - "m" vm
vm "1" - - "m" vm_event
vm_event "1" - - "1" event
vm_cache "1" - - "1" vm
query_object_kv_pair "1" - - "m" query_object
query_object_kv_pair "1" - - "m" kv_pair
map_key "1" - - "m" kv_pair
@enduml

PlantUML version 1.2018.09beta4(Unknown compile time)
(GPL source distribution)
Java Runtime: Java(TM) SE Runtime Environment
JVM: Java HotSpot(TM) 64-Bit Server VM
Java Version: 1.7.0_25-b15
Operating System: Linux
Default Encoding: UTF-8
Language: en
Country: US
--></g></svg>