
<svg xmlns="http://www.w3.org/2000/svg" xmlns:xlink="http://www.w3.org/1999/xlink" contentScriptType="application/ecmascript" contentStyleType="text/css" height="618px" preserveAspectRatio="none" style="width:619px;height:618px;" version="1.1" viewBox="0 0 619 618" width="619px" zoomAndPan="magnify"><defs><filter height="300%" id="f1jchuzxkukibt" width="300%" x="-1" y="-1"><feGaussianBlur result="blurOut" stdDeviation="2.0"/><feColorMatrix in="blurOut" result="blurOut2" type="matrix" values="0 0 0 0 0 0 0 0 0 0 0 0 0 0 0 0 0 0 .4 0"/><feOffset dx="4.0" dy="4.0" in="blurOut2" result="blurOut3"/><feBlend in="SourceGraphic" in2="blurOut3" mode="normal"/></filter></defs><g><!--class transaction--><rect fill="#FEFECE" filter="url(#f1jchuzxkukibt)" height="143.5703" id="transaction" style="stroke: #A80036; stroke-width: 1.5;" width="150" x="383" y="464"/><ellipse cx="418.7" cy="482.9688" fill="#FFAAAA" rx="11" ry="11" style="stroke: #A80036; stroke-width: 1.0;"/><path d="M419.1375,480.5 L419.1375,487.0156 L420.2625,487.0156 C420.7156,487.0156 420.8563,487.0469 421.0125,487.1719 C421.2469,487.3438 421.3719,487.5938 421.3719,487.875 C421.3719,488.1563 421.2313,488.4531 420.9656,488.5938 C420.8563,488.6719 420.5906,488.7188 420.2625,488.7188 L416.325,488.7188 C415.9344,488.7188 415.7156,488.6719 415.5594,488.5469 C415.3406,488.3906 415.2,488.125 415.2,487.875 C415.2,487.5781 415.3563,487.2969 415.6063,487.1406 C415.7625,487.0313 415.8875,487.0156 416.325,487.0156 L417.4344,487.0156 L417.4344,480.5 L415.6063,480.5 L415.6063,482.0938 C415.6063,482.5469 415.575,482.6875 415.4656,482.8594 C415.2938,483.0781 415.0438,483.2031 414.7625,483.2031 C414.4813,483.2031 414.1844,483.0625 414.0281,482.7969 C413.95,482.6563 413.9188,482.4844 413.9188,482.0938 L413.9188,478.8125 L422.6844,478.8125 L422.6844,482.0938 C422.6844,482.5625 422.6688,482.6875 422.5281,482.8594 C422.3563,483.0781 422.1063,483.2031 421.8406,483.2031 C421.5438,483.2031 421.2625,483.0469 421.1063,482.7969 C421.0125,482.6563 420.9813,482.4844 420.9813,482.0938 L420.9813,480.5 Z "/><text fill="#000000" font-family="sans-serif" font-size="12" font-style="italic" lengthAdjust="spacingAndGlyphs" textLength="69" x="438.8" y="480.1387">«DB Table»</text><text fill="#000000" font-family="sans-serif" font-size="12" lengthAdjust="spacingAndGlyphs" textLength="72" x="437.3" y="494.1074">transaction</text><line style="stroke: #A80036; stroke-width: 1.5;" x1="384" x2="532" y1="501.9375" y2="501.9375"/><text fill="#000000" font-family="sans-serif" font-size="11" lengthAdjust="spacingAndGlyphs" textLength="102" x="389" y="516.1479">aggregate_id:uuid</text><text fill="#000000" font-family="sans-serif" font-size="11" lengthAdjust="spacingAndGlyphs" textLength="108" x="389" y="528.9526">transaction_id:uuid</text><text fill="#000000" font-family="sans-serif" font-size="11" lengthAdjust="spacingAndGlyphs" textLength="138" x="389" y="541.7573">next_transaction_id:uuid</text><text fill="#000000" font-family="sans-serif" font-size="11" lengthAdjust="spacingAndGlyphs" textLength="135" x="389" y="554.562">last_transaction_id:uuid</text><text fill="#000000" font-family="sans-serif" font-size="11" lengthAdjust="spacingAndGlyphs" textLength="124" x="389" y="567.3667">creation_time:varchar</text><text fill="#000000" font-family="sans-serif" font-size="11" lengthAdjust="spacingAndGlyphs" textLength="86" x="389" y="580.1714">version:integer</text><text fill="#000000" font-family="sans-serif" font-size="11" lengthAdjust="spacingAndGlyphs" textLength="57" x="389" y="592.9761">data:JSON</text><line style="stroke: #A80036; stroke-width: 1.5;" x1="384" x2="532" y1="599.5703" y2="599.5703"/><!--class vm_type--><rect fill="#FEFECE" filter="url(#f1jchuzxkukibt)" height="92.3516" id="vm_type" style="stroke: #A80036; stroke-width: 1.5;" width="122" x="315" y="8"/><ellipse cx="341.25" cy="26.9688" fill="#FFAAAA" rx="11" ry="11" style="stroke: #A80036; stroke-width: 1.0;"/><path d="M341.6875,24.5 L341.6875,31.0156 L342.8125,31.0156 C343.2656,31.0156 343.4063,31.0469 343.5625,31.1719 C343.7969,31.3438 343.9219,31.5938 343.9219,31.875 C343.9219,32.1563 343.7813,32.4531 343.5156,32.5938 C343.4063,32.6719 343.1406,32.7188 342.8125,32.7188 L338.875,32.7188 C338.4844,32.7188 338.2656,32.6719 338.1094,32.5469 C337.8906,32.3906 337.75,32.125 337.75,31.875 C337.75,31.5781 337.9063,31.2969 338.1563,31.1406 C338.3125,31.0313 338.4375,31.0156 338.875,31.0156 L339.9844,31.0156 L339.9844,24.5 L338.1563,24.5 L338.1563,26.0938 C338.1563,26.5469 338.125,26.6875 338.0156,26.8594 C337.8438,27.0781 337.5938,27.2031 337.3125,27.2031 C337.0313,27.2031 336.7344,27.0625 336.5781,26.7969 C336.5,26.6563 336.4688,26.4844 336.4688,26.0938 L336.4688,22.8125 L345.2344,22.8125 L345.2344,26.0938 C345.2344,26.5625 345.2188,26.6875 345.0781,26.8594 C344.9063,27.0781 344.6563,27.2031 344.3906,27.2031 C344.0938,27.2031 343.8125,27.0469 343.6563,26.7969 C343.5625,26.6563 343.5313,26.4844 343.5313,26.0938 L343.5313,24.5 Z "/><text fill="#000000" font-family="sans-serif" font-size="12" font-style="italic" lengthAdjust="spacingAndGlyphs" textLength="69" x="355.75" y="24.1387">«DB Table»</text><text fill="#000000" font-family="sans-serif" font-size="12" lengthAdjust="spacingAndGlyphs" textLength="50" x="365.25" y="38.1074">vm_type</text><line style="stroke: #A80036; stroke-width: 1.5;" x1="316" x2="436" y1="45.9375" y2="45.9375"/><text fill="#000000" font-family="sans-serif" font-size="11" lengthAdjust="spacingAndGlyphs" textLength="91" x="321" y="60.1479">vm_type_id:uuid</text><text fill="#000000" font-family="sans-serif" font-size="11" lengthAdjust="spacingAndGlyphs" textLength="79" x="321" y="72.9526">name:varchar</text><text fill="#000000" font-family="sans-serif" font-size="11" lengthAdjust="spacingAndGlyphs" textLength="110" x="321" y="85.7573">description:varchar</text><line style="stroke: #A80036; stroke-width: 1.5;" x1="316" x2="436" y1="92.3516" y2="92.3516"/><!--class vm--><rect fill="#FEFECE" filter="url(#f1jchuzxkukibt)" height="92.3516" id="vm" style="stroke: #A80036; stroke-width: 1.5;" width="151" x="382.5" y="160"/><ellipse cx="421.8" cy="178.9688" fill="#FFAAAA" rx="11" ry="11" style="stroke: #A80036; stroke-width: 1.0;"/><path d="M422.2375,176.5 L422.2375,183.0156 L423.3625,183.0156 C423.8156,183.0156 423.9563,183.0469 424.1125,183.1719 C424.3469,183.3438 424.4719,183.5938 424.4719,183.875 C424.4719,184.1563 424.3313,184.4531 424.0656,184.5938 C423.9563,184.6719 423.6906,184.7188 423.3625,184.7188 L419.425,184.7188 C419.0344,184.7188 418.8156,184.6719 418.6594,184.5469 C418.4406,184.3906 418.3,184.125 418.3,183.875 C418.3,183.5781 418.4563,183.2969 418.7063,183.1406 C418.8625,183.0313 418.9875,183.0156 419.425,183.0156 L420.5344,183.0156 L420.5344,176.5 L418.7063,176.5 L418.7063,178.0938 C418.7063,178.5469 418.675,178.6875 418.5656,178.8594 C418.3938,179.0781 418.1438,179.2031 417.8625,179.2031 C417.5813,179.2031 417.2844,179.0625 417.1281,178.7969 C417.05,178.6563 417.0188,178.4844 417.0188,178.0938 L417.0188,174.8125 L425.7844,174.8125 L425.7844,178.0938 C425.7844,178.5625 425.7688,178.6875 425.6281,178.8594 C425.4563,179.0781 425.2063,179.2031 424.9406,179.2031 C424.6438,179.2031 424.3625,179.0469 424.2063,178.7969 C424.1125,178.6563 424.0813,178.4844 424.0813,178.0938 L424.0813,176.5 Z "/><text fill="#000000" font-family="sans-serif" font-size="12" font-style="italic" lengthAdjust="spacingAndGlyphs" textLength="69" x="439.2" y="176.1387">«DB Table»</text><text fill="#000000" font-family="sans-serif" font-size="12" lengthAdjust="spacingAndGlyphs" textLength="17" x="465.2" y="190.1074">vm</text><line style="stroke: #A80036; stroke-width: 1.5;" x1="383.5" x2="532.5" y1="197.9375" y2="197.9375"/><text fill="#000000" font-family="sans-serif" font-size="11" lengthAdjust="spacingAndGlyphs" textLength="61" x="388.5" y="212.1479">vm_id:uuid</text><text fill="#000000" font-family="sans-serif" font-size="11" lengthAdjust="spacingAndGlyphs" textLength="91" x="388.5" y="224.9526">vm_type_id:uuid</text><text fill="#000000" font-family="sans-serif" font-size="11" lengthAdjust="spacingAndGlyphs" textLength="139" x="388.5" y="237.7573">vm_query_object_id:uuid</text><line style="stroke: #A80036; stroke-width: 1.5;" x1="383.5" x2="532.5" y1="244.3516" y2="244.3516"/><!--class vm_cache--><rect fill="#FEFECE" filter="url(#f1jchuzxkukibt)" height="92.3516" id="vm_cache" style="stroke: #A80036; stroke-width: 1.5;" width="136" x="472" y="8"/><ellipse cx="504.55" cy="26.9688" fill="#FFAAAA" rx="11" ry="11" style="stroke: #A80036; stroke-width: 1.0;"/><path d="M504.9875,24.5 L504.9875,31.0156 L506.1125,31.0156 C506.5656,31.0156 506.7063,31.0469 506.8625,31.1719 C507.0969,31.3438 507.2219,31.5938 507.2219,31.875 C507.2219,32.1563 507.0813,32.4531 506.8156,32.5938 C506.7063,32.6719 506.4406,32.7188 506.1125,32.7188 L502.175,32.7188 C501.7844,32.7188 501.5656,32.6719 501.4094,32.5469 C501.1906,32.3906 501.05,32.125 501.05,31.875 C501.05,31.5781 501.2063,31.2969 501.4563,31.1406 C501.6125,31.0313 501.7375,31.0156 502.175,31.0156 L503.2844,31.0156 L503.2844,24.5 L501.4563,24.5 L501.4563,26.0938 C501.4563,26.5469 501.425,26.6875 501.3156,26.8594 C501.1438,27.0781 500.8938,27.2031 500.6125,27.2031 C500.3313,27.2031 500.0344,27.0625 499.8781,26.7969 C499.8,26.6563 499.7688,26.4844 499.7688,26.0938 L499.7688,22.8125 L508.5344,22.8125 L508.5344,26.0938 C508.5344,26.5625 508.5188,26.6875 508.3781,26.8594 C508.2063,27.0781 507.9563,27.2031 507.6906,27.2031 C507.3938,27.2031 507.1125,27.0469 506.9563,26.7969 C506.8625,26.6563 506.8313,26.4844 506.8313,26.0938 L506.8313,24.5 Z "/><text fill="#000000" font-family="sans-serif" font-size="12" font-style="italic" lengthAdjust="spacingAndGlyphs" textLength="69" x="520.45" y="24.1387">«DB Table»</text><text fill="#000000" font-family="sans-serif" font-size="12" lengthAdjust="spacingAndGlyphs" textLength="61" x="524.45" y="38.1074">vm_cache</text><line style="stroke: #A80036; stroke-width: 1.5;" x1="473" x2="607" y1="45.9375" y2="45.9375"/><text fill="#000000" font-family="sans-serif" font-size="11" lengthAdjust="spacingAndGlyphs" textLength="61" x="478" y="60.1479">vm_id:uuid</text><text fill="#000000" font-family="sans-serif" font-size="11" lengthAdjust="spacingAndGlyphs" textLength="124" x="478" y="72.9526">creation_time:varchar</text><text fill="#000000" font-family="sans-serif" font-size="11" lengthAdjust="spacingAndGlyphs" textLength="57" x="478" y="85.7573">data:JSON</text><line style="stroke: #A80036; stroke-width: 1.5;" x1="473" x2="607" y1="92.3516" y2="92.3516"/><!--class vm_query_object--><rect fill="#FEFECE" filter="url(#f1jchuzxkukibt)" height="66.7422" id="vm_query_object" style="stroke: #A80036; stroke-width: 1.5;" width="151" x="193.5" y="324.5"/><ellipse cx="215.7" cy="343.4688" fill="#FFAAAA" rx="11" ry="11" style="stroke: #A80036; stroke-width: 1.0;"/><path d="M216.1375,341 L216.1375,347.5156 L217.2625,347.5156 C217.7156,347.5156 217.8563,347.5469 218.0125,347.6719 C218.2469,347.8438 218.3719,348.0938 218.3719,348.375 C218.3719,348.6563 218.2313,348.9531 217.9656,349.0938 C217.8563,349.1719 217.5906,349.2188 217.2625,349.2188 L213.325,349.2188 C212.9344,349.2188 212.7156,349.1719 212.5594,349.0469 C212.3406,348.8906 212.2,348.625 212.2,348.375 C212.2,348.0781 212.3563,347.7969 212.6063,347.6406 C212.7625,347.5313 212.8875,347.5156 213.325,347.5156 L214.4344,347.5156 L214.4344,341 L212.6063,341 L212.6063,342.5938 C212.6063,343.0469 212.575,343.1875 212.4656,343.3594 C212.2938,343.5781 212.0438,343.7031 211.7625,343.7031 C211.4813,343.7031 211.1844,343.5625 211.0281,343.2969 C210.95,343.1563 210.9188,342.9844 210.9188,342.5938 L210.9188,339.3125 L219.6844,339.3125 L219.6844,342.5938 C219.6844,343.0625 219.6688,343.1875 219.5281,343.3594 C219.3563,343.5781 219.1063,343.7031 218.8406,343.7031 C218.5438,343.7031 218.2625,343.5469 218.1063,343.2969 C218.0125,343.1563 217.9813,342.9844 217.9813,342.5938 L217.9813,341 Z "/><text fill="#000000" font-family="sans-serif" font-size="12" font-style="italic" lengthAdjust="spacingAndGlyphs" textLength="69" x="248.3" y="340.6387">«DB Table»</text><text fill="#000000" font-family="sans-serif" font-size="12" lengthAdjust="spacingAndGlyphs" textLength="103" x="231.3" y="354.6074">vm_query_object</text><line style="stroke: #A80036; stroke-width: 1.5;" x1="194.5" x2="343.5" y1="362.4375" y2="362.4375"/><text fill="#000000" font-family="sans-serif" font-size="11" lengthAdjust="spacingAndGlyphs" textLength="139" x="199.5" y="376.6479">vm_query_object_id:uuid</text><line style="stroke: #A80036; stroke-width: 1.5;" x1="194.5" x2="343.5" y1="383.2422" y2="383.2422"/><!--class vm_query_object_kv_pair--><rect fill="#FEFECE" filter="url(#f1jchuzxkukibt)" height="79.5469" id="vm_query_object_kv_pair" style="stroke: #A80036; stroke-width: 1.5;" width="184" x="163" y="166"/><ellipse cx="178" cy="184.9688" fill="#FFAAAA" rx="11" ry="11" style="stroke: #A80036; stroke-width: 1.0;"/><path d="M178.4375,182.5 L178.4375,189.0156 L179.5625,189.0156 C180.0156,189.0156 180.1563,189.0469 180.3125,189.1719 C180.5469,189.3438 180.6719,189.5938 180.6719,189.875 C180.6719,190.1563 180.5313,190.4531 180.2656,190.5938 C180.1563,190.6719 179.8906,190.7188 179.5625,190.7188 L175.625,190.7188 C175.2344,190.7188 175.0156,190.6719 174.8594,190.5469 C174.6406,190.3906 174.5,190.125 174.5,189.875 C174.5,189.5781 174.6563,189.2969 174.9063,189.1406 C175.0625,189.0313 175.1875,189.0156 175.625,189.0156 L176.7344,189.0156 L176.7344,182.5 L174.9063,182.5 L174.9063,184.0938 C174.9063,184.5469 174.875,184.6875 174.7656,184.8594 C174.5938,185.0781 174.3438,185.2031 174.0625,185.2031 C173.7813,185.2031 173.4844,185.0625 173.3281,184.7969 C173.25,184.6563 173.2188,184.4844 173.2188,184.0938 L173.2188,180.8125 L181.9844,180.8125 L181.9844,184.0938 C181.9844,184.5625 181.9688,184.6875 181.8281,184.8594 C181.6563,185.0781 181.4063,185.2031 181.1406,185.2031 C180.8438,185.2031 180.5625,185.0469 180.4063,184.7969 C180.3125,184.6563 180.2813,184.4844 180.2813,184.0938 L180.2813,182.5 Z "/><text fill="#000000" font-family="sans-serif" font-size="12" font-style="italic" lengthAdjust="spacingAndGlyphs" textLength="69" x="233.5" y="182.1387">«DB Table»</text><text fill="#000000" font-family="sans-serif" font-size="12" lengthAdjust="spacingAndGlyphs" textLength="152" x="192" y="196.1074">vm_query_object_kv_pair</text><line style="stroke: #A80036; stroke-width: 1.5;" x1="164" x2="346" y1="203.9375" y2="203.9375"/><text fill="#000000" font-family="sans-serif" font-size="11" lengthAdjust="spacingAndGlyphs" textLength="139" x="169" y="218.1479">vm_query_object_id:uuid</text><text fill="#000000" font-family="sans-serif" font-size="11" lengthAdjust="spacingAndGlyphs" textLength="84" x="169" y="230.9526">kv_pair_id:uuid</text><line style="stroke: #A80036; stroke-width: 1.5;" x1="164" x2="346" y1="237.5469" y2="237.5469"/><!--class kv_pair--><rect fill="#FEFECE" filter="url(#f1jchuzxkukibt)" height="92.3516" id="kv_pair" style="stroke: #A80036; stroke-width: 1.5;" width="106" x="40" y="312"/><ellipse cx="59.05" cy="330.9688" fill="#FFAAAA" rx="11" ry="11" style="stroke: #A80036; stroke-width: 1.0;"/><path d="M59.4875,328.5 L59.4875,335.0156 L60.6125,335.0156 C61.0656,335.0156 61.2063,335.0469 61.3625,335.1719 C61.5969,335.3438 61.7219,335.5938 61.7219,335.875 C61.7219,336.1563 61.5813,336.4531 61.3156,336.5938 C61.2063,336.6719 60.9406,336.7188 60.6125,336.7188 L56.675,336.7188 C56.2844,336.7188 56.0656,336.6719 55.9094,336.5469 C55.6906,336.3906 55.55,336.125 55.55,335.875 C55.55,335.5781 55.7063,335.2969 55.9563,335.1406 C56.1125,335.0313 56.2375,335.0156 56.675,335.0156 L57.7844,335.0156 L57.7844,328.5 L55.9563,328.5 L55.9563,330.0938 C55.9563,330.5469 55.925,330.6875 55.8156,330.8594 C55.6438,331.0781 55.3938,331.2031 55.1125,331.2031 C54.8313,331.2031 54.5344,331.0625 54.3781,330.7969 C54.3,330.6563 54.2688,330.4844 54.2688,330.0938 L54.2688,326.8125 L63.0344,326.8125 L63.0344,330.0938 C63.0344,330.5625 63.0188,330.6875 62.8781,330.8594 C62.7063,331.0781 62.4563,331.2031 62.1906,331.2031 C61.8938,331.2031 61.6125,331.0469 61.4563,330.7969 C61.3625,330.6563 61.3313,330.4844 61.3313,330.0938 L61.3313,328.5 Z "/><text fill="#000000" font-family="sans-serif" font-size="12" font-style="italic" lengthAdjust="spacingAndGlyphs" textLength="69" x="71.95" y="328.1387">«DB Table»</text><text fill="#000000" font-family="sans-serif" font-size="12" lengthAdjust="spacingAndGlyphs" textLength="43" x="84.95" y="342.1074">kv_pair</text><line style="stroke: #A80036; stroke-width: 1.5;" x1="41" x2="145" y1="349.9375" y2="349.9375"/><text fill="#000000" font-family="sans-serif" font-size="11" lengthAdjust="spacingAndGlyphs" textLength="84" x="46" y="364.1479">kv_pair_id:uuid</text><text fill="#000000" font-family="sans-serif" font-size="11" lengthAdjust="spacingAndGlyphs" textLength="94" x="46" y="376.9526">map_key_id:uuid</text><text fill="#000000" font-family="sans-serif" font-size="11" lengthAdjust="spacingAndGlyphs" textLength="77" x="46" y="389.7573">value:varchar</text><line style="stroke: #A80036; stroke-width: 1.5;" x1="41" x2="145" y1="396.3516" y2="396.3516"/><!--class map_key--><rect fill="#FEFECE" filter="url(#f1jchuzxkukibt)" height="92.3516" id="map_key" style="stroke: #A80036; stroke-width: 1.5;" width="122" x="6" y="160"/><ellipse cx="32.25" cy="178.9688" fill="#FFAAAA" rx="11" ry="11" style="stroke: #A80036; stroke-width: 1.0;"/><path d="M32.6875,176.5 L32.6875,183.0156 L33.8125,183.0156 C34.2656,183.0156 34.4063,183.0469 34.5625,183.1719 C34.7969,183.3438 34.9219,183.5938 34.9219,183.875 C34.9219,184.1563 34.7813,184.4531 34.5156,184.5938 C34.4063,184.6719 34.1406,184.7188 33.8125,184.7188 L29.875,184.7188 C29.4844,184.7188 29.2656,184.6719 29.1094,184.5469 C28.8906,184.3906 28.75,184.125 28.75,183.875 C28.75,183.5781 28.9063,183.2969 29.1563,183.1406 C29.3125,183.0313 29.4375,183.0156 29.875,183.0156 L30.9844,183.0156 L30.9844,176.5 L29.1563,176.5 L29.1563,178.0938 C29.1563,178.5469 29.125,178.6875 29.0156,178.8594 C28.8438,179.0781 28.5938,179.2031 28.3125,179.2031 C28.0313,179.2031 27.7344,179.0625 27.5781,178.7969 C27.5,178.6563 27.4688,178.4844 27.4688,178.0938 L27.4688,174.8125 L36.2344,174.8125 L36.2344,178.0938 C36.2344,178.5625 36.2188,178.6875 36.0781,178.8594 C35.9063,179.0781 35.6563,179.2031 35.3906,179.2031 C35.0938,179.2031 34.8125,179.0469 34.6563,178.7969 C34.5625,178.6563 34.5313,178.4844 34.5313,178.0938 L34.5313,176.5 Z "/><text fill="#000000" font-family="sans-serif" font-size="12" font-style="italic" lengthAdjust="spacingAndGlyphs" textLength="69" x="46.75" y="176.1387">«DB Table»</text><text fill="#000000" font-family="sans-serif" font-size="12" lengthAdjust="spacingAndGlyphs" textLength="54" x="54.25" y="190.1074">map_key</text><line style="stroke: #A80036; stroke-width: 1.5;" x1="7" x2="127" y1="197.9375" y2="197.9375"/><text fill="#000000" font-family="sans-serif" font-size="11" lengthAdjust="spacingAndGlyphs" textLength="94" x="12" y="212.1479">map_key_id:uuid</text><text fill="#000000" font-family="sans-serif" font-size="11" lengthAdjust="spacingAndGlyphs" textLength="79" x="12" y="224.9526">name:varchar</text><text fill="#000000" font-family="sans-serif" font-size="11" lengthAdjust="spacingAndGlyphs" textLength="110" x="12" y="237.7573">description:varchar</text><line style="stroke: #A80036; stroke-width: 1.5;" x1="7" x2="127" y1="244.3516" y2="244.3516"/><!--class vm_transaction--><rect fill="#FEFECE" filter="url(#f1jchuzxkukibt)" height="79.5469" id="vm_transaction" style="stroke: #A80036; stroke-width: 1.5;" width="127" x="394.5" y="318"/><ellipse cx="409.5" cy="336.9688" fill="#FFAAAA" rx="11" ry="11" style="stroke: #A80036; stroke-width: 1.0;"/><path d="M409.9375,334.5 L409.9375,341.0156 L411.0625,341.0156 C411.5156,341.0156 411.6563,341.0469 411.8125,341.1719 C412.0469,341.3438 412.1719,341.5938 412.1719,341.875 C412.1719,342.1563 412.0313,342.4531 411.7656,342.5938 C411.6563,342.6719 411.3906,342.7188 411.0625,342.7188 L407.125,342.7188 C406.7344,342.7188 406.5156,342.6719 406.3594,342.5469 C406.1406,342.3906 406,342.125 406,341.875 C406,341.5781 406.1563,341.2969 406.4063,341.1406 C406.5625,341.0313 406.6875,341.0156 407.125,341.0156 L408.2344,341.0156 L408.2344,334.5 L406.4063,334.5 L406.4063,336.0938 C406.4063,336.5469 406.375,336.6875 406.2656,336.8594 C406.0938,337.0781 405.8438,337.2031 405.5625,337.2031 C405.2813,337.2031 404.9844,337.0625 404.8281,336.7969 C404.75,336.6563 404.7188,336.4844 404.7188,336.0938 L404.7188,332.8125 L413.4844,332.8125 L413.4844,336.0938 C413.4844,336.5625 413.4688,336.6875 413.3281,336.8594 C413.1563,337.0781 412.9063,337.2031 412.6406,337.2031 C412.3438,337.2031 412.0625,337.0469 411.9063,336.7969 C411.8125,336.6563 411.7813,336.4844 411.7813,336.0938 L411.7813,334.5 Z "/><text fill="#000000" font-family="sans-serif" font-size="12" font-style="italic" lengthAdjust="spacingAndGlyphs" textLength="69" x="436.5" y="334.1387">«DB Table»</text><text fill="#000000" font-family="sans-serif" font-size="12" lengthAdjust="spacingAndGlyphs" textLength="95" x="423.5" y="348.1074">vm_transaction</text><line style="stroke: #A80036; stroke-width: 1.5;" x1="395.5" x2="520.5" y1="355.9375" y2="355.9375"/><text fill="#000000" font-family="sans-serif" font-size="11" lengthAdjust="spacingAndGlyphs" textLength="61" x="400.5" y="370.1479">vm_id:uuid</text><text fill="#000000" font-family="sans-serif" font-size="11" lengthAdjust="spacingAndGlyphs" textLength="108" x="400.5" y="382.9526">transaction_id:uuid</text><line style="stroke: #A80036; stroke-width: 1.5;" x1="395.5" x2="520.5" y1="389.5469" y2="389.5469"/><!--link vm to vm_query_object--><path d="M401.294,252.005 C371.936,275.305 336.752,303.229 310.05,324.42 " fill="none" id="vm-vm_query_object" style="stroke: #A80036; stroke-width: 1.0;"/><text fill="#000000" font-family="sans-serif" font-size="13" lengthAdjust="spacingAndGlyphs" textLength="13" x="378.2205" y="272.5818">m</text><text fill="#000000" font-family="sans-serif" font-size="13" lengthAdjust="spacingAndGlyphs" textLength="8" x="309.3442" y="313.4377">1</text><!--link vm_type to vm--><path d="M400.603,100.005 C410.934,118.904 422.928,140.845 433.273,159.768 " fill="none" id="vm_type-vm" style="stroke: #A80036; stroke-width: 1.0;"/><text fill="#000000" font-family="sans-serif" font-size="13" lengthAdjust="spacingAndGlyphs" textLength="8" x="395.8866" y="120.5818">1</text><text fill="#000000" font-family="sans-serif" font-size="13" lengthAdjust="spacingAndGlyphs" textLength="13" x="415.6865" y="148.9269">m</text><!--link vm to vm_transaction--><path d="M458,252.005 C458,272.889 458,297.487 458,317.623 " fill="none" id="vm-vm_transaction" style="stroke: #A80036; stroke-width: 1.0;"/><text fill="#000000" font-family="sans-serif" font-size="13" lengthAdjust="spacingAndGlyphs" textLength="8" x="449.3625" y="272.5818">1</text><text fill="#000000" font-family="sans-serif" font-size="13" lengthAdjust="spacingAndGlyphs" textLength="13" x="443.9234" y="306.8088">m</text><!--link vm_transaction to transaction--><path d="M458,398.06 C458,417.403 458,441.371 458,463.822 " fill="none" id="vm_transaction-transaction" style="stroke: #A80036; stroke-width: 1.0;"/><text fill="#000000" font-family="sans-serif" font-size="13" lengthAdjust="spacingAndGlyphs" textLength="8" x="449.3625" y="417.7535">1</text><text fill="#000000" font-family="sans-serif" font-size="13" lengthAdjust="spacingAndGlyphs" textLength="8" x="449.5875" y="452.7011">1</text><!--link vm_cache to vm--><path d="M515.397,100.005 C505.066,118.904 493.072,140.845 482.727,159.768 " fill="none" id="vm_cache-vm" style="stroke: #A80036; stroke-width: 1.0;"/><text fill="#000000" font-family="sans-serif" font-size="13" lengthAdjust="spacingAndGlyphs" textLength="8" x="502.8384" y="120.5818">1</text><text fill="#000000" font-family="sans-serif" font-size="13" lengthAdjust="spacingAndGlyphs" textLength="8" x="477.7713" y="148.9269">1</text><!--link vm_query_object_kv_pair to vm_query_object--><path d="M258.642,246.019 C260.91,270.325 263.795,301.237 265.944,324.261 " fill="none" id="vm_query_object_kv_pair-vm_query_object" style="stroke: #A80036; stroke-width: 1.0;"/><text fill="#000000" font-family="sans-serif" font-size="13" lengthAdjust="spacingAndGlyphs" textLength="8" x="250.5849" y="265.7059">1</text><text fill="#000000" font-family="sans-serif" font-size="13" lengthAdjust="spacingAndGlyphs" textLength="13" x="251.1224" y="313.5039">m</text><!--link vm_query_object_kv_pair to kv_pair--><path d="M212.859,246.019 C191.109,266.158 164.461,290.833 141.818,311.798 " fill="none" id="vm_query_object_kv_pair-kv_pair" style="stroke: #A80036; stroke-width: 1.0;"/><text fill="#000000" font-family="sans-serif" font-size="13" lengthAdjust="spacingAndGlyphs" textLength="8" x="197.5053" y="265.7059">1</text><text fill="#000000" font-family="sans-serif" font-size="13" lengthAdjust="spacingAndGlyphs" textLength="13" x="135.0335" y="300.9613">m</text><!--link map_key to kv_pair--><path d="M74.8009,252.005 C78.0766,270.904 81.8798,292.845 85.1597,311.768 " fill="none" id="map_key-kv_pair" style="stroke: #A80036; stroke-width: 1.0;"/><text fill="#000000" font-family="sans-serif" font-size="13" lengthAdjust="spacingAndGlyphs" textLength="8" x="67.4067" y="272.5818">1</text><text fill="#000000" font-family="sans-serif" font-size="13" lengthAdjust="spacingAndGlyphs" textLength="13" x="70.0535" y="300.9269">m</text><!--
@startuml

class transaction <<(T, #FFAAAA) DB Table>>
transaction : aggregate_id:uuid
transaction : transaction_id:uuid
transaction : next_transaction_id:uuid
transaction : last_transaction_id:uuid
transaction : creation_time:varchar
transaction : version:integer
transaction : data:JSON

class vm_type <<(T, #FFAAAA) DB Table>>
vm_type : vm_type_id:uuid
vm_type : name:varchar
vm_type : description:varchar

class vm <<(T, #FFAAAA) DB Table>>
vm : vm_id:uuid
vm : vm_type_id:uuid
vm : vm_query_object_id:uuid

class vm_cache <<(T, #FFAAAA) DB Table>>
vm_cache : vm_id:uuid
vm_cache : creation_time:varchar
vm_cache : data:JSON

class vm_query_object <<(T, #FFAAAA) DB Table>>
vm_query_object : vm_query_object_id:uuid

class vm_query_object_kv_pair <<(T, #FFAAAA) DB Table>>
vm_query_object_kv_pair : vm_query_object_id:uuid
vm_query_object_kv_pair : kv_pair_id:uuid

class kv_pair <<(T, #FFAAAA) DB Table>>
kv_pair : kv_pair_id:uuid
kv_pair : map_key_id:uuid
kv_pair : value:varchar

class map_key <<(T, #FFAAAA) DB Table>>
map_key : map_key_id:uuid
map_key : name:varchar
map_key : description:varchar

class vm_transaction <<(T, #FFAAAA) DB Table>>
vm_transaction : vm_id:uuid
vm_transaction : transaction_id:uuid

vm "m" - - "1" vm_query_object
vm_type "1" - - "m" vm
vm "1" - - "m" vm_transaction
vm_transaction "1" - - "1" transaction
vm_cache "1" - - "1" vm
vm_query_object_kv_pair "1" - - "m" vm_query_object
vm_query_object_kv_pair "1" - - "m" kv_pair
map_key "1" - - "m" kv_pair
@enduml

PlantUML version 1.2018.09beta4(Unknown compile time)
(GPL source distribution)
Java Runtime: Java(TM) SE Runtime Environment
JVM: Java HotSpot(TM) 64-Bit Server VM
Java Version: 1.7.0_25-b15
Operating System: Linux
Default Encoding: UTF-8
Language: en
Country: US
--></g></svg>
